<?xml version="1.0" encoding="utf-8"?>
<!-- Generator: Adobe Illustrator 19.0.0, SVG Export Plug-In . SVG Version: 6.00 Build 0)  -->
<svg version="1.1"
	 id="svg2" xmlns:svg="http://www.w3.org/2000/svg" xmlns:dc="http://purl.org/dc/elements/1.1/" xmlns:rdf="http://www.w3.org/1999/02/22-rdf-syntax-ns#" xmlns:inkscape="http://www.inkscape.org/namespaces/inkscape" xmlns:cc="http://creativecommons.org/ns#" xmlns:sodipodi="http://sodipodi.sourceforge.net/DTD/sodipodi-0.dtd" inkscape:version="0.48.2 r9819" sodipodi:docname="AppIconTemplate.svg"
	 xmlns="http://www.w3.org/2000/svg" xmlns:xlink="http://www.w3.org/1999/xlink" x="0px" y="0px" viewBox="-83 -92.1 1024 1024"
	 style="enable-background:new -83 -92.1 1024 1024;" xml:space="preserve">
<style type="text/css">
	.st0{fill:#FFF1C7;}
	.st1{fill:#FFEFC1;}
	.st2{fill:#FF9675;}
	.st3{fill:#FFDF81;}
	.st4{fill:#FFB54C;}
	.st5{fill:#4D4D4D;}
	.st6{fill:none;stroke:#000000;}
	.st7{fill:#FFFFFF;}
	.st8{fill:#FFC928;}
	.st9{fill:#FF9B7C;}
	.st10{fill:#FECBBC;}
	.st11{fill:none;}
</style>
<path class="st0" d="M69.8,430.9v8.9c0.1,22.5,1.8,27.5,4.9,40.9l0.2,0C102,639,232.9,762,395.2,776.9l1.3,0.1
	c2.1,0.2,4.3,0.3,6.5,0.5l2.9,0.2c1.8,0.1,3.7,0.2,5.5,0.3c1.2,0.1,2.4,0.1,3.6,0.1c1.7,0,3.3,0.1,4.9,0.2c1.9,0,3.8,0,5.7,0.1
	c0.9,0,1.9,0,2.8,0h0.4c2.7,0,5.4-0.1,8.1-0.1l1.3,0c2.5-0.1,5.1-0.2,7.6-0.3l2.1-0.1c2.2-0.1,4.5-0.3,6.7-0.4l3.2-0.3
	c1.5-0.1,2.9-0.3,4.4-0.4c160.8-15,290.8-136.2,319.1-292.8c3.4-13.4,3.5-17.6,5.2-38.9l0,0h0.4l0,0l0,0c0.1-1.4,0.1-2.7,0.1-4V441
	v-0.1v-0.1v-0.2v-0.1v-0.1l0,0v-0.1v-0.1v-0.3v-0.1v-0.1v-0.1v-0.1h0v-0.1v-0.1v-0.1v-0.1V439v-0.1v-0.1
	c2.3-26.7-1.2-70.7-10.3-104.6l-0.5-1.8c-39.1-155.7-179.9-271-347.8-271c-171.9,0-315.5,121-350.4,282.4l0,0c0,0.1-0.1,0.3-0.1,0.4
	l-0.6,2.2l-0.3,1.3l-0.6,2.4c-4.4,18.3-5.8,40.1-6.3,59.2c-0.1,3.6-0.2,7.1-0.2,10.7v0.7C69.8,424.2,69.8,427.7,69.8,430.9z"/>
<path class="st1" d="M428.7-236.8c320.7,0,580.7,260,580.7,580.7c0,320.7-260,580.7-580.7,580.7c-320.7,0-580.7-260-580.7-580.7
	C-152.1,23.2,108-236.8,428.7-236.8"/>
<path class="st2" d="M963.6,402.5c-87.5,8.4-168.7-42.2-312.1,30.6c-149.2,75.8-334,168.9-304.7,163.3c28.9-5.4,389-28,597.3-36.8
	c12.8-45.7,19.7-93.8,19.7-143.6C963.7,411.5,963.7,407,963.6,402.5z"/>
<path class="st3" d="M-55,433.4c0,0,74.4-73.9,127.9-81.2s160.4,69.3,205.1,73.4c44.7,4.1,172.4-130.3,222.5-107.5
	c50.2,22.7,165.8,87.9,230.2,99.3c64.4,11.4,161.5-113.7,207.3-128.2c5.7-1.8,11.4-3.3,17-4.6c10.6,41.6,16.3,85.3,16.3,130.2
	c0,16.8-0.8,33.5-2.4,49.9C746.7,507,203.6,587.3,86,539.4C-33.1,490.8-55,433.4-55,433.4z"/>
<path class="st4" d="M-125.8,439.7c30.4-23.2,105.8-48.5,157.4-13.4c45.7,31.1,54.3,33.8,83.9,26.5
	c138.3-89.1,209.6-59.9,274.9,20.1c79.6,70.1,235.7,32.2,274,66.2c38.3,34-9.6,44.6-9.6,44.6l-733.3,52.2
	C-105.9,575.6-122.5,509.3-125.8,439.7z"/>
<path class="st3" d="M-212.7,552.1h1282.8c-76.5,282.5-334.7,490.4-641.4,490.4C121.9,1042.5-136.2,834.7-212.7,552.1z"/>
<path class="st5" d="M913.6,832.4L516.6,603.2l-23-13.3l-65.5-37.8L343,601.3l-28.2,16.3L-56.5,832
	c121.3,129.6,293.8,210.6,485.3,210.6C620,1042.5,792.3,961.7,913.6,832.4z"/>
<defs>
	
	
		<inkscape:perspective  inkscape:vp_x="0 : 512 : 1" sodipodi:type="inkscape:persp3d" id="perspective4094" inkscape:vp_y="0 : 1000 : 0" inkscape:vp_z="1024 : 512 : 1" inkscape:persp3d-origin="512 : 341.33333 : 1">
		</inkscape:perspective>
</defs>
<sodipodi:namedview  showgrid="false" fit-margin-top="0" id="base" fit-margin-left="0" showguides="true" pagecolor="#ffffff" inkscape:cx="1052.2646" borderlayer="true" borderopacity="1.0" inkscape:zoom="0.64" inkscape:cy="508.89593" bordercolor="#666666" showborder="false" inkscape:pageopacity="0.0" inkscape:current-layer="layer2" inkscape:guide-bbox="true" inkscape:document-units="px" inkscape:pageshadow="2" inkscape:window-width="1920" inkscape:window-y="0" inkscape:window-x="36" inkscape:window-height="1036" inkscape:window-maximized="0" fit-margin-bottom="0" inkscape:showpageshadow="false" fit-margin-right="0">
	<sodipodi:guide  id="guide3101" position="-10.429825,956.71547" orientation="0,1"></sodipodi:guide>
	<sodipodi:guide  id="guide3103" position="956.5625,59.8125" orientation="1,0"></sodipodi:guide>
	<sodipodi:guide  id="guide3105" position="1246.875,315.625" orientation="0,1"></sodipodi:guide>
	<sodipodi:guide  id="guide3107" position="67.351921,64.523494" orientation="1,0"></sodipodi:guide>
	<sodipodi:guide  id="guide3109" position="961.5,67.5" orientation="0,1"></sodipodi:guide>
	<sodipodi:guide  id="guide3111" position="319.08193,67.707547" orientation="1,0"></sodipodi:guide>
	<sodipodi:guide  id="guide3113" position="511.68014,67.707547" orientation="1,0"></sodipodi:guide>
	<sodipodi:guide  id="guide3115" position="706.1875,64.734375" orientation="1,0"></sodipodi:guide>
	<sodipodi:guide  id="guide3117" position="-21.213203,1024" orientation="0,1"></sodipodi:guide>
	<sodipodi:guide  id="guide3119" position="0,0" orientation="0,1"></sodipodi:guide>
	<sodipodi:guide  id="guide3121" position="0,1042.6289" orientation="1,0"></sodipodi:guide>
	<sodipodi:guide  id="guide3123" position="-6.8942911,705" orientation="0,1"></sodipodi:guide>
	<sodipodi:guide  id="guide3125" position="1024,1037.75" orientation="1,0"></sodipodi:guide>
	<sodipodi:guide  id="guide3127" position="-27.223611,512.65241" orientation="0,1"></sodipodi:guide>
	<inkscape:grid  type="xygrid" id="grid4235" visible="true" empspacing="5" enabled="true" snapvisiblegridlinesonly="true">
		</inkscape:grid>
	<sodipodi:guide  id="guide4003" position="511.68014,430.8932" orientation="1,0"></sodipodi:guide>
</sodipodi:namedview>
<g id="layer1" transform="translate(50.25,211.52169)" inkscape:label="BORDER" sodipodi:insensitive="true" inkscape:groupmode="layer">
	<path id="path5" inkscape:connector-curvature="0" class="st6" d="M219-303.6h319.6c101.4,0,152.1,0,206.7,17.3
		c59.6,21.7,106.5,68.6,128.2,128.2c17.3,54.6,17.3,105.3,17.3,206.7v319.6c0,101.4,0,152.1-17.3,206.7
		c-21.7,59.6-68.6,106.5-128.2,128.2c-54.6,17.3-105.3,17.3-206.7,17.3H219c-101.4,0-152.1,0-206.7-17.3
		C-47.4,681.4-94.3,634.5-116,574.9c-17.3-54.6-17.3-105.3-17.3-206.7V48.6c0-101.4,0-152.1,17.3-206.7
		c21.7-59.6,68.6-106.5,128.2-128.2C66.8-303.6,117.5-303.6,219-303.6L219-303.6"/>
</g>
<g id="layer6" inkscape:label="MASK" inkscape:groupmode="layer">
	<path id="path4146" inkscape:connector-curvature="0" sodipodi:nodetypes="csssssssssssccc" class="st7" d="M-83,616.3
		c0.1,38.8,0.6,71,3.5,100.2c0.9,8.9,2,17.5,3.4,25.9c2.7,17.1,6.3,30.6,10.6,44.6c1,3.1,2.3,6,3.5,8.9c5,11.9,10.4,22.6,16.8,32.2
		c7.5,11.4,16.6,23.4,26.7,33.8c11.3,11.6,22.2,20.6,34.2,28.8c7.8,5.3,15.2,9.8,23.7,13.9c3.3,1.6,6.8,3.3,10.5,4.9
		c6,2.6,12.6,5.2,20.4,7.4c16.3,4.6,37.8,9.5,66.7,11.8c26,2.1,58.1,3.2,99.2,3.2H-83L-83,616.3z"/>
	<path id="path4146-5" inkscape:connector-curvature="0" sodipodi:nodetypes="cssssssssccc" class="st7" d="M941,616.3
		c0,33.5-0.4,57.5-2.2,86.1c-2.1,33.6-7.7,62-16.1,85.8c-5.2,14.5-11.4,27.3-18.6,38.6c-10.4,16.2-22.7,31.2-36.9,44.5
		c-6.9,6.4-14,11.8-21.9,17.5c-10.4,7.4-20.2,13.1-32.2,18.6c-10.7,5-23.2,9.5-39.9,13.5c-11.6,2.7-25.2,5.3-41.7,7.1
		c-27.2,2.9-62.2,3.4-108.3,4H941V616.3z"/>
	<path id="path4146-5-3" inkscape:connector-curvature="0" sodipodi:nodetypes="cssssssssssccc" class="st7" d="M941,226.2
		c0.2-39.1-0.3-73.6-3.5-103.9c-1.4-13.5-3.9-26.3-6-38.2c-3.6-20.5-10.1-38.4-17.3-52.7c-2.1-4.2-3.9-7.6-5.8-10.8
		c-1.5-2.6-3.1-5.2-4.9-8.1c-2-3.1-3.9-6.2-6-9.2c-5.7-8-12.2-15.9-18.9-23.2c-10.1-10.8-21.3-21-33.9-29.4
		c-18-12-33.3-21.3-61.7-29.1c-12.9-3.5-28.7-6.9-48.7-9.2c-27.3-3.2-62.8-4.3-111.2-4.4H941L941,226.2z"/>
	<path id="path4146-5-3-7" inkscape:connector-curvature="0" sodipodi:nodetypes="csssssccc" class="st7" d="M-83,226.4
		c0-54.3,2-103.1,8.8-140c6-32.2,15.8-54.5,29.1-75.1C-29.7-12.7-10-33.9,14.3-50.1c14.6-9.7,27.2-16.7,46.1-24
		c9.9-3.8,21.4-6.6,34.7-9.2c30.2-5.9,72.6-9.2,141-8.9H-83V226.4z"/>
</g>
<g>
	<path class="st7" d="M750.6,808.7L428.2,552.1l341.6,239.7C763.6,797.6,757.1,803.2,750.6,808.7z M108.4,810
		c-7.3-6-14.3-12.1-21.2-18.5l337.1-236.7l3.9-2.6L108.4,810z"/>
	<path class="st8" d="M396.7,881.8l12.9-135.5h35.3l11.6,135.5H396.7z M412.9,712.6l6.5-67.9h16.8l5.8,67.9H412.9z M420.7,630.7
		l3-31.2h8.6l2.7,31.2L420.7,630.7L420.7,630.7z M424.4,592.6l1.9-20.1h3.7l1.7,20.1H424.4z M426.7,568.3l1.5-16.2l1.4,16.2H426.7z"
		/>
</g>
<path class="st9" d="M426.5,122.5c51.6,0,93.4,41.8,93.4,93.4c0,51.6-41.8,93.4-93.4,93.4c-51.6,0-93.4-41.8-93.4-93.4
	C333.1,164.4,374.9,122.5,426.5,122.5z"/>
<g>
	<path class="st10" d="M223.4,187.6c9.4,0,18.2,1.8,26.1,5.1c8.5-6.8,20.1-11.1,32.9-11.1c22.2,0,40.8,12.7,45.7,29.7
		c11.1,2.8,20,9.7,24,18.5c1.3-0.1,2.7-0.2,4.1-0.2c20.5,0,37.1,13.7,37.1,30.6s-16.6,30.6-37.1,30.6c-6.4,0-12.4-1.3-17.6-3.7
		c-4.5,12.7-18.7,22-35.6,22c-10.3,0-19.6-3.5-26.4-9.1c-6.7,5.6-16,9.1-26.4,9.1c-9.8,0-18.7-3.1-25.3-8.3
		c-6.8,6.1-16.5,10-27.4,10c-10.2,0-19.4-3.4-26-8.8c-3.1,0.6-6.3,0.8-9.5,0.8c-24.4,0-44.2-16.3-44.2-36.5
		c0-20.1,19.8-36.5,44.2-36.5c1.3,0,2.7,0.1,3.9,0.2C169,206.2,193.6,187.6,223.4,187.6z"/>
	<path class="st10" d="M688.8,286.5c3.6,0,7,0.7,10,1.9c3.2-2.6,7.7-4.2,12.6-4.2c8.5,0,15.6,4.8,17.5,11.4c4.2,1,7.6,3.7,9.2,7.1
		c0.5,0,1-0.1,1.5-0.1c7.8,0,14.2,5.2,14.2,11.7c0,6.5-6.4,11.7-14.2,11.7c-2.4,0-4.7-0.5-6.7-1.4c-1.7,4.9-7.2,8.4-13.6,8.4
		c-3.9,0-7.5-1.3-10.1-3.5c-2.6,2.1-6.1,3.5-10.1,3.5c-3.8,0-7.2-1.2-9.7-3.2c-2.6,2.4-6.3,3.8-10.5,3.8c-3.9,0-7.4-1.3-10-3.4
		c-1.2,0.2-2.4,0.3-3.6,0.3c-9.3,0-16.9-6.2-16.9-13.9c0-7.7,7.6-13.9,16.9-13.9c0.5,0,1,0,1.5,0.1
		C668,293.7,677.4,286.5,688.8,286.5z"/>
	<path class="st10" d="M510-4.5c5.8,0,11.2,1.1,16.1,3.1c5.2-4.2,12.4-6.8,20.3-6.8c13.7,0,25.1,7.8,28.2,18.3
		c6.8,1.7,12.3,6,14.8,11.4c0.8-0.1,1.6-0.1,2.5-0.1c12.6,0,22.9,8.5,22.9,18.9s-10.2,18.9-22.9,18.9c-3.9,0-7.6-0.8-10.9-2.3
		c-2.8,7.8-11.6,13.6-22,13.6c-6.3,0-12.1-2.1-16.2-5.6c-4.1,3.4-9.9,5.6-16.2,5.6c-6,0-11.5-1.9-15.6-5.1
		c-4.2,3.8-10.2,6.1-16.9,6.1c-6.3,0-11.9-2.1-16-5.4c-1.9,0.3-3.9,0.5-5.9,0.5c-15.1,0-27.3-10.1-27.3-22.5
		c0-12.4,12.2-22.5,27.3-22.5c0.8,0,1.6,0,2.4,0.1C476.4,7,491.6-4.5,510-4.5z"/>
</g>
<line class="st0" x1="941" y1="-92.1" x2="-83" y2="-92.1"/>
<line class="st11" x1="-83" y1="931.2" x2="-83" y2="-92.1"/>
<line class="st11" x1="940.3" y1="931.2" x2="-83" y2="931.2"/>
<line class="st11" x1="940.3" y1="-92.1" x2="940.3" y2="931.2"/>
<line class="st11" x1="-83" y1="-92.1" x2="940.3" y2="-92.1"/>
</svg>
